<svg width="19" height="19" viewBox="0 0 19 19" fill="none" xmlns="http://www.w3.org/2000/svg">
<path d="M7.49944 13.179L8.94814 14.6277L14.0854 9.49046L8.94814 4.35322L7.49944 5.80192L10.1502 8.46301H0.214844V10.5179H10.1502L7.49944 13.179ZM16.654 0.243439H2.26974C1.72474 0.243439 1.20207 0.459936 0.816708 0.845303C0.431341 1.23067 0.214844 1.75334 0.214844 2.29833V6.40812H2.26974V2.29833H16.654V16.6826H2.26974V12.5728H0.214844V16.6826C0.214844 17.2276 0.431341 17.7502 0.816708 18.1356C1.20207 18.521 1.72474 18.7375 2.26974 18.7375H16.654C17.7842 18.7375 18.7089 17.8128 18.7089 16.6826V2.29833C18.7089 1.16814 17.7842 0.243439 16.654 0.243439Z" fill="white"/>
</svg>
