<svg width="23" height="23" viewBox="0 0 23 23" fill="none" xmlns="http://www.w3.org/2000/svg">
<path d="M20.6472 10.4356C20.4145 8.35203 19.4802 6.40956 17.9977 4.92711C16.5153 3.44467 14.5728 2.51037 12.4893 2.27764V0.161102H10.4344V2.27764C8.35084 2.51037 6.40837 3.44467 4.92592 4.92711C3.44348 6.40956 2.50918 8.35203 2.27645 10.4356H0.159912V12.4905H2.27645C2.50918 14.574 3.44348 16.5165 4.92592 17.9989C6.40837 19.4814 8.35084 20.4157 10.4344 20.6484V22.7649H12.4893V20.6484C14.5728 20.4157 16.5153 19.4814 17.9977 17.9989C19.4802 16.5165 20.4145 14.574 20.6472 12.4905H22.7637V10.4356H20.6472ZM11.4618 18.6551C7.4856 18.6551 4.2697 15.4392 4.2697 11.463C4.2697 7.48679 7.4856 4.27089 11.4618 4.27089C15.438 4.27089 18.6539 7.48679 18.6539 11.463C18.6539 15.4392 15.438 18.6551 11.4618 18.6551Z" fill="#1E1E1E"/>
</svg>
