<svg width="27" height="27" viewBox="0 0 27 27" fill="none" xmlns="http://www.w3.org/2000/svg">
<path d="M13.2363 26.043C5.76043 26.043 0.548889 20.8339 0.548889 13.3975C0.548889 9.49965 1.86076 6.19458 4.35871 3.82355C6.71289 1.59622 10.0195 0.356812 13.6496 0.356812C21.1435 0.356812 26.391 5.5659 26.391 13.0023C26.391 17.1336 24.9533 20.5465 22.2037 22.8996C19.8496 24.9293 16.6508 26.043 13.2363 26.043ZM13.6496 1.95546C6.83868 1.95546 2.25612 6.55383 2.25612 13.3975C2.25612 19.9178 6.7668 24.4623 13.2363 24.4623C18.9331 24.4623 24.6837 20.9237 24.6837 13.0203C24.6837 6.39216 20.2449 1.95546 13.6496 1.95546Z" fill="#1E1E1E"/>
<path d="M15.5941 13.2778C15.5941 14.448 14.5708 15.4021 13.314 15.4021C12.0572 15.4021 11.0338 14.448 11.0338 13.2778C11.0338 12.1077 12.0572 11.1536 13.314 11.1536C14.5708 11.1536 15.5941 12.1077 15.5941 13.2778Z" fill="#1E1E1E"/>
<path d="M20.9731 15.3826C20.9731 16.4072 20.0777 17.234 18.9852 17.234C17.8928 17.234 16.9974 16.4072 16.9974 15.3826C16.9974 14.358 17.8928 13.5312 18.9852 13.5312C20.0777 13.5312 20.9731 14.358 20.9731 15.3826Z" fill="#1E1E1E"/>
<path d="M10.1763 15.3826C10.1763 16.4072 9.2809 17.234 8.18848 17.234C7.09606 17.234 6.20062 16.4072 6.20062 15.3826C6.20062 14.358 7.09606 13.5312 8.18848 13.5312C9.2809 13.5312 10.1763 14.358 10.1763 15.3826Z" fill="#1E1E1E"/>
<path d="M13.9909 25.2244H12.91C12.0273 25.2244 11.3067 24.5056 11.3067 23.625V18.0539C11.3067 17.1733 12.0273 16.4545 12.91 16.4545H13.9909C14.8736 16.4545 15.5942 17.1733 15.5942 18.0539V23.625C15.5942 24.5056 14.8736 25.2244 13.9909 25.2244Z" fill="#1E1E1E"/>
<path d="M8.8498 24.172H7.25435C6.51937 24.172 5.9278 23.5781 5.9278 22.8402V19.3845C5.9278 18.6466 6.51937 18.0526 7.25435 18.0526H8.8498C9.58478 18.0526 10.1763 18.6466 10.1763 19.3845V22.8402C10.1763 23.5781 9.58478 24.172 8.8498 24.172Z" fill="#1E1E1E"/>
<path d="M19.6463 24.172H18.051C17.3161 24.172 16.7245 23.5781 16.7245 22.8402V19.3845C16.7245 18.6466 17.3161 18.0526 18.051 18.0526H19.6463C20.3812 18.0526 20.9727 18.6466 20.9727 19.3845V22.8402C20.9906 23.5781 20.3812 24.172 19.6463 24.172Z" fill="#1E1E1E"/>
<path d="M13.2363 26.043C5.76043 26.043 0.548889 20.8339 0.548889 13.3975C0.548889 9.49965 1.86076 6.19458 4.35871 3.82355C6.71289 1.59622 10.0195 0.356812 13.6496 0.356812C21.1435 0.356812 26.391 5.5659 26.391 13.0023C26.391 17.1336 24.9533 20.5465 22.2037 22.8996C19.8496 24.9293 16.6508 26.043 13.2363 26.043ZM13.6496 1.95546C6.83868 1.95546 2.25612 6.55383 2.25612 13.3975C2.25612 19.9178 6.7668 24.4623 13.2363 24.4623C18.9331 24.4623 24.6837 20.9237 24.6837 13.0203C24.6837 6.39216 20.2449 1.95546 13.6496 1.95546Z" fill="#1E1E1E"/>
<path d="M15.5941 13.2778C15.5941 14.448 14.5708 15.4021 13.314 15.4021C12.0572 15.4021 11.0338 14.448 11.0338 13.2778C11.0338 12.1077 12.0572 11.1536 13.314 11.1536C14.5708 11.1536 15.5941 12.1077 15.5941 13.2778Z" fill="#1E1E1E"/>
<path d="M20.9731 15.3826C20.9731 16.4072 20.0777 17.234 18.9852 17.234C17.8928 17.234 16.9974 16.4072 16.9974 15.3826C16.9974 14.358 17.8928 13.5312 18.9852 13.5312C20.0777 13.5312 20.9731 14.358 20.9731 15.3826Z" fill="#1E1E1E"/>
<path d="M10.1763 15.3826C10.1763 16.4072 9.2809 17.234 8.18848 17.234C7.09606 17.234 6.20062 16.4072 6.20062 15.3826C6.20062 14.358 7.09606 13.5312 8.18848 13.5312C9.2809 13.5312 10.1763 14.358 10.1763 15.3826Z" fill="#1E1E1E"/>
<path d="M13.9909 25.2244H12.91C12.0273 25.2244 11.3067 24.5056 11.3067 23.625V18.0539C11.3067 17.1733 12.0273 16.4545 12.91 16.4545H13.9909C14.8736 16.4545 15.5942 17.1733 15.5942 18.0539V23.625C15.5942 24.5056 14.8736 25.2244 13.9909 25.2244Z" fill="#1E1E1E"/>
<path d="M8.8498 24.172H7.25435C6.51937 24.172 5.9278 23.5781 5.9278 22.8402V19.3845C5.9278 18.6466 6.51937 18.0526 7.25435 18.0526H8.8498C9.58478 18.0526 10.1763 18.6466 10.1763 19.3845V22.8402C10.1763 23.5781 9.58478 24.172 8.8498 24.172Z" fill="#1E1E1E"/>
<path d="M19.6463 24.172H18.051C17.3161 24.172 16.7245 23.5781 16.7245 22.8402V19.3845C16.7245 18.6466 17.3161 18.0526 18.051 18.0526H19.6463C20.3812 18.0526 20.9727 18.6466 20.9727 19.3845V22.8402C20.9906 23.5781 20.3812 24.172 19.6463 24.172Z" fill="#1E1E1E"/>
</svg>
