<?xml version="1.0" encoding="utf-8"?>
<!-- Generator: Adobe Illustrator 22.0.0, SVG Export Plug-In . SVG Version: 6.00 Build 0)  -->
<svg version="1.1" xmlns="http://www.w3.org/2000/svg" xmlns:xlink="http://www.w3.org/1999/xlink" x="0px" y="0px"
	 viewBox="0 0 128 128" style="enable-background:new 0 0 128 128;" xml:space="preserve">
<style type="text/css">
	.st0{display:none;}
	.st1{display:inline;}
	.st2{fill:#FFFFFF;}
	.st3{fill:#BC5957;}
	.st4{fill:#FFFDFD;}
	.st5{fill:none;stroke:#FFFDFD;stroke-width:4;stroke-linecap:round;stroke-miterlimit:10;}
</style>
<g id="Layer_1">
</g>
<g id="Layer_2" class="st0">
	<g class="st1">
		<rect x="13.5" y="51.5" transform="matrix(0.8317 -0.5552 0.5552 0.8317 -27.9005 46.951)" class="st2" width="100" height="36"/>
		<path d="M95,27.5l19.4,29.1l-82.3,55L12.6,82.4L95,27.5 M95.2,26.1l-84,56.1l20.5,30.8l84-56.1L95.2,26.1L95.2,26.1z"/>
	</g>
</g>
<g id="Layer_5">
	<g>
		<circle class="st3" cx="64" cy="64" r="63"/>
	</g>
	<g id="Layer_3">
	</g>
	<g id="Layer_4">
		<g>
			<path class="st4" d="M52,65.8c2.4,0,4.7,1.1,6.1,3.2l1.3,1.9c2.2,3.3,1.3,7.9-2,10.1l-14.5,9.7c-1.2,0.8-2.6,1.2-4,1.2
				c-2.4,0-4.7-1.1-6.1-3.2l-1.3-1.9c-2.2-3.3-1.3-7.9,2-10.1L47.9,67C49.2,66.2,50.6,65.8,52,65.8 M52,61.8L52,61.8
				c-2.2,0-4.4,0.7-6.3,1.9l-14.5,9.7c-2.5,1.7-4.2,4.2-4.8,7.2c-0.6,3,0,6,1.7,8.5l1.3,1.9c2.1,3.1,5.6,5,9.4,5
				c2.2,0,4.4-0.7,6.3-1.9l14.5-9.7c2.5-1.7,4.2-4.2,4.8-7.2c0.6-3,0-6-1.7-8.5l-1.3-1.9C59.3,63.6,55.8,61.8,52,61.8L52,61.8z"/>
		</g>
		<g>
			<path class="st4" d="M91.4,38.7c2.4,0,4.7,1.1,6.1,3.2l1.3,1.9c2.2,3.3,1.3,7.9-2,10.1l-14.5,9.7c-1.2,0.8-2.6,1.2-4,1.2
				c-2.4,0-4.7-1.1-6.1-3.2l-1.3-1.9c-2.2-3.3-1.3-7.9,2-10.1l14.5-9.7C88.6,39.1,90,38.7,91.4,38.7 M91.4,34.7L91.4,34.7
				c-2.2,0-4.4,0.7-6.3,1.9l-14.5,9.7C65.4,49.8,64,56.8,67.5,62l1.3,1.9c2.1,3.1,5.6,5,9.4,5c2.2,0,4.4-0.7,6.3-1.9l14.5-9.7
				c5.2-3.5,6.6-10.5,3.1-15.6l-1.3-1.9C98.7,36.6,95.2,34.7,91.4,34.7L91.4,34.7z"/>
		</g>
		<line class="st5" x1="58" y1="70.1" x2="72.4" y2="60.5"/>
	</g>
</g>
<g id="Layer_6">
</g>
</svg>
