<?xml version="1.0" encoding="utf-8"?>
<!-- Generator: Adobe Illustrator 22.0.0, SVG Export Plug-In . SVG Version: 6.00 Build 0)  -->
<svg version="1.1" id="Layer_1" xmlns="http://www.w3.org/2000/svg" xmlns:xlink="http://www.w3.org/1999/xlink" x="0px" y="0px"
	 viewBox="0 0 128 128" style="enable-background:new 0 0 128 128;" xml:space="preserve">
<style type="text/css">
	.st0{fill:none;stroke:#BC5957;stroke-width:3;}
	.st1{fill:#BC5957;}
	.st2{fill:#FFFDFD;}
</style>
<path class="st0" d="M16.8,29.3h94.6c4.7,0,8.5,3.8,8.5,8.5v51c0,4.7-3.8,8.5-8.5,8.5H16.8c-4.7,0-8.5-3.8-8.5-8.5v-51
	C8.3,33.1,12.1,29.3,16.8,29.3z"/>
<path class="st1" d="M49.9,75.5c-1.2,0-2.1-0.9-2.1-2.1V53.2c0-1.2,0.9-2.1,2.1-2.1h29.4c1.2,0,2.1,0.9,2.1,2.1v20.2
	c0,1.1-0.9,2.1-2.1,2.1H49.9z"/>
<path class="st2" d="M79.3,51.8c0.8,0,1.4,0.6,1.4,1.4v20.2c0,0.8-0.6,1.4-1.4,1.4H49.9c-0.8,0-1.4-0.6-1.4-1.4V53.2
	c0-0.8,0.6-1.4,1.4-1.4H79.3z M79.3,50.4H49.9c-1.5,0-2.8,1.2-2.8,2.8v20.2c0,1.5,1.2,2.8,2.8,2.8h29.4c1.5,0,2.8-1.2,2.8-2.8V53.2
	C82.1,51.7,80.9,50.4,79.3,50.4z"/>
<path class="st1" d="M64.6,63.6c-0.2,0-0.4,0-0.6-0.1l-14.7-4c-0.9-0.2-1.5-1.1-1.5-2v-4.2c0-1.2,0.9-2.1,2.1-2.1l29.3-0.1
	c1.2,0,2.1,0.9,2.1,2l0.1,4.3c0,1-0.6,1.8-1.5,2l-14.7,4C65,63.6,64.8,63.6,64.6,63.6z"/>
<path class="st2" d="M79.2,51.8c0.7,0,1.4,0.6,1.4,1.3l0.1,4.3c0,0.6-0.4,1.2-1,1.3l-14.7,4c-0.1,0-0.2,0-0.4,0s-0.2,0-0.4,0
	l-14.7-4c-0.6-0.2-1-0.7-1-1.3v-4.2c0-0.8,0.6-1.4,1.4-1.4L79.2,51.8z M79.2,50.4l-29.3,0.1c-1.5,0-2.8,1.2-2.8,2.8v4.2
	c0,1.2,0.8,2.3,2,2.7l14.7,4c0.2,0,0.5,0.1,0.7,0.1s0.5,0,0.7-0.1l14.7-4c1.2-0.3,2.1-1.5,2-2.7L82,53.2
	C82,51.6,80.7,50.4,79.2,50.4z"/>
<path class="st1" d="M60.3,51.1c-0.6,0-1.1-0.5-1.1-1.1v-2.4c0-0.6,0.5-1.2,1.1-1.2h8.5c0.6,0,1.2,0.5,1.2,1.2V50
	c0,0.6-0.5,1.1-1.2,1.1H60.3z"/>
<path class="st2" d="M68.9,47.1c0.3,0,0.5,0.2,0.5,0.5V50c0,0.3-0.2,0.5-0.5,0.5h-8.5c-0.2,0-0.5-0.2-0.5-0.5v-2.4
	c0-0.3,0.2-0.5,0.5-0.5L68.9,47.1L68.9,47.1z M68.9,45.7h-8.5c-1,0-1.8,0.8-1.8,1.8V50c0,1,0.8,1.8,1.8,1.8h8.5c1,0,1.8-0.8,1.8-1.8
	v-2.4C70.7,46.5,69.9,45.7,68.9,45.7z"/>
<path class="st1" d="M52.6,56.1c0.3,0,0.6-0.3,0.6-0.6c0-0.3-0.3-0.6-0.6-0.6c-0.3,0-0.6,0.3-0.6,0.6C52,55.8,52.3,56.1,52.6,56.1z"
	/>
<path class="st2" d="M52.6,54.2c-0.7,0-1.3,0.6-1.3,1.3c0,0.7,0.6,1.3,1.3,1.3c0.7,0,1.3-0.6,1.3-1.3C53.9,54.8,53.4,54.2,52.6,54.2
	z"/>
<path class="st1" d="M68.6,64h-8v1.1h8V64z"/>
<path class="st2" d="M68.9,63.3h-8.5c-0.2,0-0.5,0.2-0.5,0.5v1.6c0,0.2,0.2,0.5,0.5,0.5h8.5c0.3,0,0.5-0.2,0.5-0.5v-1.6
	C69.3,63.5,69.1,63.3,68.9,63.3z"/>
</svg>
