<svg width="22" height="19" viewBox="0 0 22 19" fill="none" xmlns="http://www.w3.org/2000/svg">
<path d="M21.1896 6.26766L20.1108 1.77772C19.8847 0.85302 19.0833 0.216003 18.1483 0.216003H3.8771C2.9524 0.216003 2.14072 0.863295 1.92495 1.77772L0.846134 6.26766C0.599547 7.31566 0.825585 8.3842 1.48315 9.22671C1.56535 9.33973 1.67837 9.42192 1.77084 9.52467V16.6551C1.77084 17.7853 2.69554 18.71 3.82573 18.71H18.21C19.3402 18.71 20.2649 17.7853 20.2649 16.6551V9.52467C20.3573 9.4322 20.4704 9.33973 20.5526 9.23698C21.2101 8.39448 21.4464 7.31566 21.1896 6.26766ZM18.1175 2.26062L19.1963 6.75056C19.2991 7.18209 19.2066 7.61362 18.9395 7.95267C18.7956 8.13761 18.4874 8.43557 17.9737 8.43557C17.3469 8.43557 16.8024 7.93212 16.7305 7.26428L16.1345 2.2709L18.1175 2.26062ZM12.0453 2.2709H14.0591L14.6139 6.91495C14.6653 7.31566 14.542 7.71636 14.2749 8.01432C14.0488 8.28146 13.72 8.43557 13.2988 8.43557C12.6104 8.43557 12.0453 7.82938 12.0453 7.08962V2.2709ZM7.41152 6.91495L7.97661 2.2709H9.99041V7.08962C9.99041 7.82938 9.42531 8.43557 8.665 8.43557C8.31567 8.43557 7.99716 8.28146 7.75057 8.01432C7.6225 7.86362 7.52639 7.68846 7.46811 7.49947C7.40982 7.31048 7.39057 7.11161 7.41152 6.91495ZM2.83938 6.75056L3.8771 2.2709H5.90117L5.30525 7.26428C5.22306 7.93212 4.68878 8.43557 4.06204 8.43557C3.55859 8.43557 3.24008 8.13761 3.10652 7.95267C2.82911 7.62389 2.73664 7.18209 2.83938 6.75056ZM3.82573 16.6551V10.4596C3.90792 10.4699 3.97985 10.4905 4.06204 10.4905C4.95592 10.4905 5.7676 10.1206 6.36352 9.51439C6.97999 10.1309 7.80195 10.4905 8.73692 10.4905C9.6308 10.4905 10.4322 10.1206 11.0281 9.53494C11.6343 10.1206 12.4563 10.4905 13.381 10.4905C14.244 10.4905 15.066 10.1309 15.6825 9.51439C16.2784 10.1206 17.0901 10.4905 17.9839 10.4905C18.0661 10.4905 18.1381 10.4699 18.2203 10.4596V16.6551H3.82573Z" fill="#1E1E1E"/>
</svg>
