<svg width="22" height="17" viewBox="0 0 22 17" fill="none" xmlns="http://www.w3.org/2000/svg">
<path d="M21.4308 6.40809V2.2983C21.4308 1.75331 21.2143 1.23064 20.8289 0.845272C20.4435 0.459905 19.9209 0.243408 19.3759 0.243408H2.93673C1.80654 0.243408 0.89211 1.15784 0.89211 2.2983V6.40809C2.0223 6.40809 2.93673 7.33279 2.93673 8.46298C2.93673 9.59317 2.0223 10.5179 0.881836 10.5179V14.6277C0.881836 15.7578 1.80654 16.6825 2.93673 16.6825H19.3759C20.5061 16.6825 21.4308 15.7578 21.4308 14.6277V10.5179C20.3006 10.5179 19.3759 9.59317 19.3759 8.46298C19.3759 7.33279 20.3006 6.40809 21.4308 6.40809ZM19.3759 4.90801C18.1532 5.61695 17.321 6.95263 17.321 8.46298C17.321 9.97332 18.1532 11.309 19.3759 12.0179V14.6277H2.93673V12.0179C4.15939 11.309 4.99162 9.97332 4.99162 8.46298C4.99162 6.94236 4.16966 5.61695 2.947 4.90801L2.93673 2.2983H19.3759V4.90801ZM10.1289 11.5453H12.1837V13.6002H10.1289V11.5453ZM10.1289 7.43553H12.1837V9.49043H10.1289V7.43553ZM10.1289 3.32575H12.1837V5.38064H10.1289V3.32575Z" fill="#1E1E1E"/>
</svg>
