<?xml version="1.0" encoding="utf-8"?>
<!-- Generator: Adobe Illustrator 22.0.0, SVG Export Plug-In . SVG Version: 6.00 Build 0)  -->
<svg version="1.1" xmlns="http://www.w3.org/2000/svg" xmlns:xlink="http://www.w3.org/1999/xlink" x="0px" y="0px"
	 viewBox="0 0 128 128" style="enable-background:new 0 0 128 128;" xml:space="preserve">
<style type="text/css">
	.st0{display:none;}
	.st1{display:inline;}
	.st2{fill:#FFFFFF;}
	.st3{fill:#BC5957;}
	.st4{fill:#FFFDFD;}
	.st5{display:inline;fill:none;stroke:#FFFDFD;stroke-width:4;stroke-linecap:round;stroke-miterlimit:10;}
	.st6{fill:#FFFFFF;stroke:#FFFFFF;stroke-miterlimit:10;}
</style>
<g id="Layer_1">
	<g id="Layer_1_1_">
	</g>
	<g id="Layer_2_1_" class="st0">
		<g class="st1">
			
				<rect x="13.5" y="51.5" transform="matrix(0.8317 -0.5552 0.5552 0.8317 -27.9002 46.9509)" class="st2" width="100" height="36"/>
			<path d="M95,27.5l19.4,29.1l-82.3,55L12.6,82.4L95,27.5 M95.2,26.1l-84,56.1L31.7,113l84-56.1L95.2,26.1L95.2,26.1z"/>
		</g>
	</g>
	<g id="Layer_5">
		<g>
			<circle class="st3" cx="64" cy="64" r="62.9"/>
		</g>
		<g id="Layer_3" class="st0">
		</g>
		<g id="Layer_4" class="st0">
			<g class="st1">
				<path class="st4" d="M50.5,65c2.8,0,5.4,1.3,7,3.7l0,0c2.5,3.8,1.5,9.1-2.3,11.7l-12.7,8.4c-1.4,0.9-3,1.4-4.6,1.4
					c-2.8,0-5.4-1.3-7-3.7l0,0c-2.5-3.8-1.5-9.1,2.3-11.7l12.7-8.4C47.3,65.5,48.9,65,50.5,65 M50.5,60.4L50.5,60.4
					c-2.5,0-5.1,0.8-7.3,2.2L30.5,71c-2.9,2-4.8,4.8-5.5,8.3s0,6.9,2,9.8c2.4,3.6,6.5,5.8,10.8,5.8c2.5,0,5.1-0.8,7.3-2.2l12.7-8.4
					c6-4,7.6-12.1,3.6-18C58.9,62.6,54.9,60.4,50.5,60.4L50.5,60.4z"/>
			</g>
			<g class="st1">
				<path class="st4" d="M89.8,38c2.8,0,5.4,1.3,7,3.7l0,0c2.5,3.8,1.5,9.1-2.3,11.7l-12.7,8.4c-1.4,0.9-3,1.4-4.6,1.4
					c-2.8,0-5.4-1.3-7-3.7l0,0c-2.5-3.8-1.5-9.1,2.3-11.7l12.7-8.4C86.6,38.5,88.2,38,89.8,38 M89.8,33.4L89.8,33.4
					c-2.5,0-5.1,0.8-7.3,2.2L69.9,44c-2.9,2-4.8,4.8-5.5,8.3c-0.7,3.5,0,6.9,2,9.8c2.4,3.6,6.5,5.8,10.8,5.8c2.5,0,5.1-0.8,7.3-2.2
					l12.7-8.4c2.9-2,4.8-4.8,5.5-8.3s0-6.9-2-9.8C98.3,35.6,94.2,33.4,89.8,33.4L89.8,33.4z"/>
			</g>
			<line class="st5" x1="56.8" y1="69" x2="71.3" y2="59.4"/>
		</g>
	</g>
	<g id="Layer_6">
	</g>
</g>
<g id="Layer_2">
	<path class="st6" d="M53.3,47.5l0,33.1c0,1.5,1.7,2.5,3,1.7L85,65.7c1.3-0.8,1.3-2.7,0-3.5L56.3,45.7C55,45,53.3,45.9,53.3,47.5z"
		/>
</g>
</svg>
