<svg width="13" height="14" viewBox="0 0 13 14" fill="none" xmlns="http://www.w3.org/2000/svg">
<path d="M7.64247 7L12.017 2.71C12.2086 2.5217 12.3162 2.2663 12.3162 2C12.3162 1.7337 12.2086 1.47831 12.017 1.29C11.8254 1.1017 11.5656 0.995911 11.2947 0.995911C11.0238 0.995911 10.7639 1.1017 10.5724 1.29L6.20803 5.59L1.84368 1.29C1.65211 1.1017 1.39229 0.995911 1.12137 0.995911C0.850457 0.995911 0.590637 1.1017 0.399069 1.29C0.207502 1.47831 0.0998807 1.7337 0.0998807 2C0.0998807 2.2663 0.207502 2.5217 0.399069 2.71L4.77359 7L0.399069 11.29C0.303716 11.383 0.228033 11.4936 0.176385 11.6154C0.124736 11.7373 0.0981445 11.868 0.0981445 12C0.0981445 12.132 0.124736 12.2627 0.176385 12.3846C0.228033 12.5064 0.303716 12.617 0.399069 12.71C0.493643 12.8037 0.606161 12.8781 0.730133 12.9289C0.854104 12.9797 0.987075 13.0058 1.12137 13.0058C1.25567 13.0058 1.38865 12.9797 1.51262 12.9289C1.63659 12.8781 1.74911 12.8037 1.84368 12.71L6.20803 8.41L10.5724 12.71C10.667 12.8037 10.7795 12.8781 10.9034 12.9289C11.0274 12.9797 11.1604 13.0058 11.2947 13.0058C11.429 13.0058 11.562 12.9797 11.6859 12.9289C11.8099 12.8781 11.9224 12.8037 12.017 12.71C12.1123 12.617 12.188 12.5064 12.2397 12.3846C12.2913 12.2627 12.3179 12.132 12.3179 12C12.3179 11.868 12.2913 11.7373 12.2397 11.6154C12.188 11.4936 12.1123 11.383 12.017 11.29L7.64247 7Z" fill="white"/>
</svg>
